<svg style="position: absolute; width: 0; height: 0; overflow: hidden;" version="1.1" xmlns="http://www.w3.org/2000/svg" xmlns:xlink="http://www.w3.org/1999/xlink">
<defs>
<symbol id="icon-cc-license" viewBox="0 0 110 32">
  <title>cc-license</title>
  <path class="icon-path" d="M16.144.95c-4.09 0-7.695 1.526-10.482 4.37C2.8 8.25 1.242 12.04 1.242 16c0 3.998 1.517 7.708 4.38 10.594 2.87 2.89 6.59 4.455 10.522 4.455 3.93 0 7.738-1.57 10.684-4.5 2.782-2.76 4.255-6.43 4.255-10.55 0-4.09-1.472-7.8-4.296-10.64C23.923 2.47 20.237.95 16.14.95zm.04 2.72c3.358 0 6.343 1.28 8.68 3.63 2.29 2.31 3.52 5.36 3.52 8.7 0 3.378-1.19 6.347-3.48 8.616-2.417 2.39-5.528 3.67-8.72 3.67-3.23 0-6.263-1.28-8.594-3.63C5.255 22.31 3.945 19.216 3.945 16c0-3.258 1.312-6.348 3.645-8.74 2.292-2.353 5.24-3.592 8.598-3.592zm-.193 9.83c-.84-1.55-2.28-2.17-3.95-2.17-2.43 0-4.37 1.737-4.37 4.67 0 2.986 1.82 4.668 4.46 4.668 1.69 0 3.13-.932 3.92-2.35l-1.85-.95c-.41 1.004-1.04 1.302-1.83 1.302-1.374 0-2.003-1.15-2.003-2.67 0-1.514.53-2.664 2.005-2.664.395 0 1.19.22 1.65 1.22L16 13.503zm8.62 0c-.84-1.55-2.28-2.17-3.95-2.17-2.43 0-4.37 1.737-4.37 4.67 0 2.986 1.82 4.668 4.46 4.668 1.69 0 3.13-.932 3.93-2.35l-1.854-.95c-.416 1.004-1.045 1.302-1.84 1.302-1.37 0-2.006-1.15-2.006-2.67 0-1.514.53-2.664 2-2.664.394 0 1.19.22 1.652 1.22l1.984-1.053zm34.41-1.223c0-.536-.43-.97-.96-.97h-6.11c-.53 0-.96.434-.96.97v6.15h1.71v7.278h4.63v-7.278h1.705v-6.15zm-1.92-3.88c0 1.16-.93 2.102-2.08 2.102s-2.09-.95-2.09-2.11.94-2.11 2.09-2.11 2.08.95 2.08 2.11zM54.99.973c-4.136 0-7.63 1.45-10.5 4.357-2.94 3.003-4.41 6.562-4.41 10.67s1.474 7.64 4.41 10.594c2.942 2.955 6.437 4.434 10.502 4.434 4.11 0 7.67-1.493 10.68-4.476 2.847-2.833 4.263-6.347 4.263-10.558 0-4.208-1.44-7.764-4.33-10.675C62.718 2.41 59.183.96 54.997.96zm.032 2.703c3.39 0 6.263 1.202 8.63 3.61 2.39 2.38 3.583 5.28 3.583 8.714 0 3.456-1.164 6.326-3.505 8.602-2.464 2.457-5.363 3.683-8.702 3.683-3.338 0-6.213-1.212-8.628-3.643-2.414-2.43-3.625-5.31-3.625-8.642S44 9.765 46.44 7.284c2.34-2.406 5.208-3.61 8.593-3.61zm38.8-2.703c4.187 0 7.72 1.45 10.61 4.357 2.89 2.907 4.33 6.463 4.33 10.67 0 4.21-1.42 7.726-4.26 10.56-3.01 2.978-6.57 4.47-10.68 4.47-4.05 0-7.56-1.474-10.49-4.433-2.94-2.95-4.403-6.488-4.403-10.593 0-4.105 1.46-7.664 4.4-10.667C86.19 2.43 89.69.977 93.82.977zM82.28 11.965c-.442 1.267-.664 2.61-.664 4.035 0 3.33 1.206 6.213 3.62 8.64 2.417 2.433 5.29 3.645 8.627 3.645 3.34 0 6.24-1.226 8.71-3.683.83-.8 1.5-1.675 2.04-2.63l-5.622-2.52c-.38 1.902-2.06 3.19-4.1 3.347v2.31h-1.72V22.8c-1.67-.026-3.29-.716-4.52-1.803l2.06-2.09c.99.934 1.975 1.36 3.33 1.36.873 0 1.845-.35 1.845-1.5 0-.402-.154-.69-.402-.9l-1.42-.638-1.77-.8-2.365-1.06-7.623-3.42zm11.583-8.29c-3.38 0-6.24 1.203-8.58 3.61-.64.643-1.19 1.324-1.66 2.03l5.707 2.554c.514-1.6 2.02-2.57 3.843-2.67V6.88h1.716v2.312c1.17.057 2.47.383 3.74 1.378l-1.96 2.03c-.726-.514-1.637-.88-2.55-.88-.74 0-1.788.23-1.788 1.17 0 .142.05.267.133.38l1.91.855 1.29.58 2.396 1.073 7.644 3.43c.253-1.01.38-2.08.38-3.218 0-3.43-1.196-6.337-3.59-8.717-2.364-2.404-5.24-3.606-8.63-3.606z"/>
</symbol>
<symbol id="icon-heart" viewBox="0 0 32 32">
  <title>heart</title>
  <path class="icon-path" d="M23.6 2c-3.363 0-6.258 2.736-7.599 5.594-1.342-2.858-4.237-5.594-7.601-5.594-4.637 0-8.4 3.764-8.4 8.401 0 9.433 9.516 11.906 16.001 21.232 6.13-9.268 15.999-12.1 15.999-21.232 0-4.637-3.763-8.401-8.4-8.401z"/>
</symbol>
<symbol id="icon-chevron-down" viewBox="0 0 32 32">
  <title>chevron down</title>
  <path class="icon-path" d="M.045 8.443c0-.215.082-.43.246-.594.33-.33.86-.33 1.19 0L16 22.37 30.52 7.85c.33-.33.86-.33 1.19 0s.327.86 0 1.186L16.593 24.152c-.328.326-.86.326-1.188 0L.29 9.036c-.163-.163-.245-.378-.245-.593z"/>
</symbol>
<symbol id="icon-quote" viewBox="0 0 32 32">
  <title>quote</title>
  <path d="M16 1.204c8.15 0 14.796 6.646 14.796 14.796S24.15 30.796 16 30.796 1.204 24.15 1.204 16 7.85 1.204 16 1.204m0-1.087C7.223.117.117 7.223.117 16S7.223 31.883 16 31.883 31.883 24.777 31.883 16 24.777.117 16 .117z"/>
  <path d="M16 1.956C8.226 1.956 1.956 8.226 1.956 16S8.226 30.044 16 30.044 30.044 23.774 30.044 16 23.774 1.956 16 1.956zm-3.887 13.92c.836 0 1.505.207 2.006.626.5.418.75 1.044.75 1.84 0 .584-.21 1.127-.67 1.63-.46.5-1.045.752-1.798.752-1.17 0-2.048-.377-2.55-1.17S9.1 17.756 9.1 16.502c0-.878.21-1.714.586-2.424.375-.752.835-1.38 1.42-1.965.543-.585 1.17-1.086 1.797-1.504.626-.42 1.17-.757 1.588-1.008l.754 1.212c-.627.376-1.17.67-1.546.96-.418.252-.794.628-1.21 1.046-.378.42-.67.837-.88 1.297-.21.46-.334 1.043-.418 1.754h.92zm7.65 0c.835 0 1.504.207 2.005.626.502.418.752 1.044.752 1.84 0 .584-.208 1.127-.668 1.63-.418.5-1.045.752-1.798.752-1.17 0-2.048-.377-2.55-1.17-.5-.795-.752-1.798-.752-3.052 0-.878.21-1.714.586-2.424.376-.752.836-1.38 1.42-1.965.544-.585 1.17-1.086 1.8-1.504.625-.42 1.17-.757 1.587-1.008l.752 1.212c-.627.376-1.17.67-1.547.96-.417.252-.793.628-1.212 1.046-.418.42-.71.878-.877 1.297-.163.416-.33 1.002-.414 1.754h.92z"/>
</symbol>
<symbol id="icon-github" viewBox="0 0 32 32">
  <title>github</title>
  <path class="icon-path" d="M27.779 14.169c0.112-0.708 0.186-1.528 0.186-2.423 0-3.839-1.826-5.181-2.199-5.815 0.522-2.907-0.075-4.212-0.373-4.66-1.044-0.373-3.616 0.969-5.032 1.864-2.311-0.671-7.157-0.596-8.946 0.186-3.355-2.385-5.144-2.050-5.144-2.050s-1.155 2.050-0.298 5.069c-1.118 1.417-1.938 2.386-1.938 5.032 0 0.634 0.037 1.23 0.112 1.789 1.006 5.032 4.958 7.194 8.871 7.567-0.596 0.447-1.305 1.305-1.379 2.274-0.745 0.485-2.199 0.634-3.355 0.261-1.603-0.522-2.236-3.69-4.66-3.243-0.522 0.112-0.41 0.447 0.037 0.745 0.745 0.485 1.417 1.081 1.976 2.348 0.41 0.969 1.267 2.721 3.988 2.721 1.081 0 1.826-0.112 1.826-0.112s0.037 2.498 0.037 3.466c0 1.118-1.491 1.417-1.491 1.976 0 0.224 0.485 0.224 0.895 0.224 0.783 0 2.423-0.671 2.423-1.826v-4.547c0-1.193 0.634-1.566 0.634-1.566s0.075 6.337-0.149 7.157c-0.261 1.006-0.745 0.857-0.745 1.305 0 0.671 1.976 0.149 2.647-1.305 0.522-1.118 0.298-7.343 0.298-7.343h0.522v4.138c-0.037 1.342-0.149 3.057 0.634 3.839 0.522 0.522 2.125 1.454 2.125 0.596 0-0.485-1.118-0.895-1.118-2.236v-6.15c0.671 0 0.82 2.013 0.82 2.013l0.261 3.728s-0.149 1.379 1.454 1.938c0.559 0.186 1.826 0.261 1.864-0.075 0.075-0.336-1.491-0.857-1.491-1.901 0-0.634 0.037-1.006 0.037-3.802s-0.373-3.839-1.677-4.66c3.728-0.373 7.641-2.087 8.35-6.523z"/>
</symbol>
<symbol id="icon-codepen" viewBox="0 0 32 32">
  <title>codepen</title>
  <path class="icon-path" d="M17.050 1.259c-0.882-0.546-2.016-0.546-2.855 0.042l-12.764 8.649c-0.672 0.462-1.092 1.218-1.092 2.016v9.321c0 0.84 0.42 1.596 1.134 2.057l12.974 8.355c0.84 0.546 1.931 0.546 2.813 0l13.226-8.482c0.714-0.462 1.134-1.218 1.134-2.057v-9.153c0-0.84-0.42-1.596-1.134-2.057l-13.436-8.691zM26.959 11.378l-4.87 3.191-4.576-3.233-0.042-6.382 9.489 6.424zM14.11 4.954v6.256l-4.702 3.191-4.702-3.065 9.405-6.382zM3.446 14.401l3.023 1.973-3.023 2.057v-4.031zM14.195 27.753l-9.447-6.172 4.744-3.233 4.744 3.107c-0.042 0-0.042 6.298-0.042 6.298zM12.389 16.332l3.065-2.099 3.569 2.267-3.149 2.099-3.485-2.267zM17.553 27.753v-6.298l4.535-2.939 4.87 3.107-9.405 6.13zM28.302 18.557l-3.233-2.057 3.233-2.099v4.157z"/>
</symbol>
<symbol id="icon-mail" viewBox="0 0 32 32">
  <title>mail</title>
  <path class="icon-path" d="M19.714 17.12c-.04-.082-.12-.12-.24-.042L16.8 18.635c-.32.2-.678.2-1 0l-2.315-1.318c-.08-.04-.16-.04-.24 0L4.34 25.543c-.04.04-.04.08-.04.2 0 .04.04.08.08.16.2.04.32.08.4.08h22.722c.04 0 .12-.04.198-.08 0-.12 0-.2-.04-.24l-7.946-8.545zM11.01 16.36c.04-.04.04-.08.04-.16s-.04-.16-.08-.16L4.06 12.09c-.08-.04-.16-.04-.24 0-.04 0-.08.04-.08.16v10.42c0 .082.04.162.16.2h.08c.04 0 .08 0 .08-.038l6.95-6.47zM28.14 11.888h-.2L21.35 15.8c-.04 0-.08.04-.08.16-.04.04 0 .08.04.16l6.59 7.108c.04.04.12.08.16.08h.08c.08-.08.16-.16.16-.2v-11.02c0-.08-.04-.16-.16-.2zM27.5 6.017h-23c-.24 0-.398.08-.6.2-.158.16-.24.36-.24.6V9.37c0 .12.042.2.16.2l12.14 6.908c.04 0 .12 0 .16-.04l11.7-6.828c.04-.04.12-.04.16-.04.04 0 .08 0 .158-.04.12 0 .2-.04.2-.2V6.857c0-.24-.08-.48-.24-.6-.2-.16-.4-.24-.598-.24z"/>
</symbol>
<symbol id="icon-rss" viewBox="0 0 32 32">
  <title>rss</title>
  <path class="icon-path" d="M 15.365 16.241 C 11.653 12.849 5.016 12.053 5.016 12.053 C 4.269 12.053 3.662 12.559 3.662 13.287 L 3.662 15.597 C 3.662 16.321 4.269 16.828 5.016 16.832 C 5.016 16.832 9.281 16.943 11.844 19.255 C 15.226 22.309 15.132 26.543 15.132 26.543 C 15.132 27.274 15.484 27.864 16.233 27.864 L 18.857 27.864 C 19.604 27.864 19.787 27.274 19.787 26.543 C 19.787 26.543 19.163 19.709 15.365 16.243 Z M 7.174 21.404 C 5.321 21.404 3.817 22.869 3.817 24.672 C 3.817 26.481 5.321 27.942 7.174 27.942 C 9.03 27.942 10.533 26.481 10.533 24.672 C 10.533 22.869 9.03 21.404 7.174 21.404 Z M 22.008 11.656 C 16.168 4.799 5.017 4.058 5.017 4.058 C 4.272 4.058 3.663 4.566 3.663 5.296 L 3.663 7.602 C 3.663 8.331 4.272 8.836 5.017 8.836 C 5.017 8.836 12.986 9.088 17.481 14.258 C 23.641 20.427 23.174 26.595 23.174 26.595 C 23.174 27.325 23.779 27.914 24.529 27.914 L 27.151 27.914 C 27.9 27.914 28.337 27.325 28.337 26.595 C 28.337 26.595 27.782 16.893 22.008 11.656 Z"/>
</symbol>
<symbol id="icon-twitter" viewBox="0 0 32 32">
  <title>twitter</title>
  <path class="icon-path" d="M32.010 7.547c-1.178 0.52-2.444 0.869-3.773 1.028 1.356-0.807 2.397-2.086 2.888-3.606-1.268 0.746-2.675 1.287-4.17 1.582-1.198-1.268-2.905-2.060-4.793-2.060-3.627 0-6.568 2.918-6.568 6.519 0 0.507 0.058 1.008 0.17 1.485-5.457-0.274-10.296-2.868-13.536-6.809-0.564 0.962-0.889 2.080-0.889 3.274 0 2.263 1.16 4.256 2.922 5.425-1.076-0.033-2.089-0.328-2.974-0.816-0.001 0.027-0.001 0.054-0.001 0.083 0 3.158 2.264 5.791 5.268 6.39-0.551 0.149-1.131 0.227-1.73 0.227-0.423 0-0.835-0.039-1.236-0.116 0.835 2.59 3.261 4.474 6.135 4.525-2.248 1.748-5.080 2.791-8.156 2.791-0.531 0-1.053-0.031-1.567-0.093 2.906 1.85 6.358 2.929 10.067 2.929 12.079 0 18.684-9.93 18.684-18.541 0-0.282-0.006-0.564-0.018-0.843 1.284-0.92 2.396-2.067 3.277-3.374z"></path>
</symbol>
<symbol id="icon-weibo" viewBox="0 0 32 32">
  <title>sina-weibo</title>
  <path class="icon-path" d="M31.601 14.102c0 0.002 0 0.003 0 0.005-0.209 0.643-0.9 0.996-1.544 0.788-0.645-0.208-0.998-0.899-0.79-1.545h-0.001c0.64-1.981 0.234-4.241-1.259-5.898s-3.698-2.289-5.735-1.857c-0.663 0.141-1.314-0.282-1.455-0.944-0.142-0.661 0.28-1.313 0.943-1.456h0.001c2.863-0.609 5.964 0.28 8.067 2.614 2.103 2.33 2.671 5.507 1.773 8.293zM23.11 9.519v-0.001c-0.568 0.124-1.13-0.241-1.251-0.81-0.122-0.571 0.241-1.132 0.811-1.253 1.395-0.298 2.906 0.134 3.93 1.27s1.3 2.683 0.861 4.041c-0.179 0.555-0.774 0.858-1.328 0.681-0.555-0.18-0.858-0.776-0.679-1.33h-0.002c0.215-0.664 0.080-1.421-0.42-1.976s-1.239-0.765-1.922-0.621zM23.533 11.494c0.554 0.792 0.501 1.903-0.010 3.19-0.236 0.592 0.073 0.684 0.524 0.82 1.836 0.569 3.881 1.948 3.881 4.375 0 4.019-5.792 9.081-14.499 9.081-6.641 0-13.431-3.221-13.431-8.519 0-2.769 1.754-5.972 4.773-8.994 4.033-4.034 8.735-5.872 10.504-4.101 0.78 0.78 0.855 2.131 0.354 3.744-0.261 0.812 0.762 0.362 0.762 0.364 3.26-1.366 6.103-1.446 7.143 0.040zM22.42 19.806c-0.343-3.48-4.918-5.878-10.219-5.354-5.299 0.525-9.318 3.772-8.974 7.253s4.919 5.878 10.219 5.355c5.301-0.524 9.317-3.772 8.974-7.255zM10.019 25.565c-2.548-0.823-3.626-3.34-2.511-5.608 1.096-2.224 3.945-3.481 6.467-2.825 2.61 0.675 3.942 3.139 2.876 5.531-1.082 2.448-4.193 3.753-6.832 2.902zM11.458 20.799c-0.821-0.344-1.881 0.009-2.388 0.804-0.513 0.798-0.272 1.749 0.543 2.12 0.827 0.378 1.924 0.019 2.437-0.799 0.503-0.827 0.238-1.771-0.592-2.125zM13.481 19.96c-0.315-0.125-0.708 0.026-0.893 0.336-0.179 0.311-0.080 0.666 0.235 0.796 0.321 0.132 0.731-0.020 0.916-0.337 0.177-0.319 0.062-0.678-0.258-0.795z"/>
</symbol>
<symbol id="icon-zhihu" viewBox="0 0 32 32">
  <title>zhihu</title>
  <path class="icon-path" d="M26.182 27.151l-4.849 4.849v-4.849h-2.909v-22.303l12.596 0.164 0.010-0.164v22.303h-4.849zM28.121 7.758h-6.788v17.422l0.97 0.033v1.939l3.736-1.99 2.082 0.050v-17.455zM11.636 17.455c-1.010 0.010-1.043-0.212-1.089 0.878-0.029 0.693-0.243 1.378-0.374 2.066l-0.859 2.763c-0.696 1.816-1.484 3.581-2.768 5.092-1.274 1.496-3.009 1.705-4.803 1.768-0.279 0.010-0.666 0.054-0.766-0.312-0.093-0.344 0.245-0.524 0.465-0.701 1.89-1.528 3.22-2.641 4.376-4.765 0.937-1.72 1.633-2.913 1.939-4.849 0.131-0.829-0.18-1.962-0.97-1.939-1.466 0.042-4.351-0.015-5.818 0-0.047-0.005 0.13-0.469 0.282-0.954 0.314-1.057 1.049-1.92 1.873-1.905 1.279 0.023 1.416-0.091 2.694-0.050 0.81 0.026 1.948-0.128 1.939-0.97-0.019-1.901-0.053-3.919 0-5.818 0.016-0.545 0.382-0.769-0.134-0.812-1.677-0.137-1.841-0.060-2.635 1.474-0.648 1.25-1.984 1.959-3.337 2.294-0.73 0.181-0.655 0.156-0.562-0.064 1.071-2.514 2.233-5.721 3.248-8.247 0.417-1.038 2.182-1.795 3.203-2.378 0 0 0.239-0.173 0.005 0.553-0.251 0.782-0.585 2.202-0.863 2.973-0.292 0.806-0.146 1.223 0.677 1.216 2.446-0.020 5.026 0 7.473 0 0.577 0 1.068-0.097 1.429 0.514 1.176 1.984 0.91 1.649-0.235 1.667-0.978 0.016-2.443-0.127-3.42-0.16-0.74-0.025-1.785 0.378-1.819 1.161-0.091 2.122-0.149 3.687-0.12 5.627 0.011 0.689 1.451 0.971 1.939 0.97 1.279-0.002 1.444 0.028 2.723 0.050 1.044 0.017 1.761 0.864 2.126 1.889 0.026 0.324 0.261 0.881 0 0.97-1.335-0.014-4.501-0.013-5.818 0zM15.515 25.212c0.381 0.565 0.431 1.574 0 2.909-0.085 0.266-0.604 0.133-1.166-0.507-1.357-1.548-2.601-3.188-3.913-4.773-0.367-0.443-0.587-0.694-0.754-0.746l1.954-1.732c0.894 1.056 2.987 3.791 3.879 4.848z"/>
</symbol>
<symbol id="icon-bilibili" viewBox="0 0 32 32">
  <title>bilibili</title>
  <path class="icon-path" d="M31.364 28.407c-0.273 0.001-0.55 0.025-0.821-0.004-0.992-0.108-1.716 1.020-2.060 2.208-0.31 1.070-1.486 1.617-2.545 1.507-1.223-0.126-2.032-0.825-2.344-1.93-0.188-0.668-0.754-1.186-1.378-1.182-4.303 0.025-8.13 0.013-12.434 0-0.495-0.001-1.024 0.473-1.169 1.057-0.31 1.252-1.374 2.046-2.552 2.066-1.22 0.021-2.279-0.753-2.635-2.053-0.149-0.544-0.401-1.708-0.921-1.679-0.669 0.037-1.343 0.019-2.014 0.007-0.734-0.013-1.058-0.308-1.058-1.004 0.005-7.080 0.016-14.159 0.034-21.239 0.002-0.732 0.306-0.978 1.149-0.979 3.457-0.004 6.915-0.002 10.373-0.002 0.241 0 0.483 0 0.723 0 0.022-0.059 0.045-0.119 0.066-0.179-0.803-0.422-1.606-0.843-2.408-1.266-1.331-0.703-2.665-1.403-3.994-2.108-0.539-0.286-0.763-0.722-0.458-1.263 0.308-0.547 0.816-0.58 1.348-0.3 3.122 1.646 6.245 3.291 9.355 4.955 0.797 0.427 2.231 0.171 2.744-0.55 1.591-2.242 3.18-4.484 4.77-6.728 0.056-0.079 0.11-0.16 0.168-0.238 0.454-0.609 0.969-0.774 1.437-0.414 0.542 0.415 0.449 0.909 0.1 1.403-0.646 0.915-1.291 1.829-1.935 2.744-0.893 1.268-1.785 2.538-2.777 3.947 0.406 0 0.666 0 0.926 0 3.434 0 6.867-0.001 10.299 0.001 1.049 0.001 1.21 0.16 1.211 1.179 0.010 6.959 0.020 13.917 0.026 20.876 0.001 0.995-0.182 1.163-1.229 1.17zM26.204 30.489c0.549-0.036 0.81-1.491 0.977-2.041-0.714 0-1.346 0-2.076 0 0.204 0.605 0.487 2.083 1.099 2.041zM5.968 30.49c0.608 0.037 0.895-1.433 1.076-2.037-0.719 0-1.348 0-2.045 0 0.139 0.569 0.425 2.004 0.969 2.037zM30.506 7.247c-9.935 0-19.135 0-29.012 0 0 6.696 0 13.030 0 19.687 9.925 0 19.086 0 29.012 0 0-6.706 0-13.022 0-19.687zM3.566 11.269c0.002-0.959 0.465-1.897 1.431-1.898 7.37-0.001 14.154-0.054 21.524-0.052 0.98 0 1.91 1.001 1.913 1.95 0.013 4.578-0.007 8.101 0 12.678 0.002 0.978-0.885 1.949-1.913 1.95-3.674 0.002-6.848 0-10.521 0s-6.847 0.002-10.521 0c-1.069-0.001-1.914-0.896-1.913-1.95 0.005-4.555-0.008-8.123 0-12.678zM26.669 23.806c0-4.328-0.148-8.3-0.148-12.536-7.112 0-13.993 0-21.042 0 0 4.303-0.025 8.272-0.025 12.536 7.098 0 14.134 0 21.215 0zM11.449 13.793c0.060-0.027 0.135-0.022 0.386-0.058 0.146 0.143 0.515 0.34 0.554 0.586 0.045 0.288-0.11 0.79-0.333 0.903-1.362 0.691-2.76 1.314-4.162 1.924-0.427 0.186-0.896 0.046-1.005-0.41-0.071-0.298 0.057-0.865 0.271-0.973 1.403-0.71 2.853-1.328 4.289-1.973zM11.877 18.412c0.265-0.009 0.608 0.357 0.8 0.637 0.153 0.223 0.089 0.579 0.197 0.848 0.204 0.513 0.588 1.001 1.156 0.881 0.42-0.088 0.803-0.508 1.118-0.856 0.155-0.172 0.129-0.512 0.167-0.778 0.071-0.501 0.367-0.81 0.862-0.798 0.453 0.011 0.747 0.285 0.805 0.775 0.037 0.31 0.046 0.694 0.231 0.9 0.296 0.329 0.723 0.727 1.105 0.74 0.346 0.011 0.767-0.407 1.039-0.73 0.181-0.215 0.171-0.594 0.228-0.903 0.092-0.494 0.378-0.795 0.89-0.755 0.509 0.039 0.776 0.367 0.756 0.878-0.049 1.296-0.564 2.35-1.778 2.928-1.131 0.54-2.188 0.308-3.115-0.522-0.050-0.045-0.11-0.077-0.172-0.119-0.282 0.196-0.543 0.423-0.842 0.579-0.979 0.511-1.959 0.468-2.863-0.16-0.997-0.694-1.441-1.706-1.352-2.882 0.019-0.255 0.491-0.654 0.767-0.663zM19.105 13.733c0.24-0.421 0.667-0.536 1.066-0.309 1.584 0.903 3.151 1.836 4.707 2.783 0.186 0.113 0.273 0.384 0.339 0.482 0.018 0.77-0.62 1.189-1.206 0.858-1.568-0.884-3.109-1.814-4.649-2.748-0.406-0.247-0.492-0.656-0.257-1.066z"/>
</symbol>
<symbol id="icon-douban" viewBox="0 0 32 32">
  <title>douban</title>
  <path class="icon-path" d="M9.955 20.173c1.256 1.714 2.389 3.87 3.382 6.288h6.097c1.186-1.866 2.102-4.024 2.997-6.288l3.441 1.156c-0.9 1.909-1.994 3.681-3.023 5.132h8.537l0.043 3.038h-30.857v-2.893l9.351-0.146c-0.807-1.562-1.826-3.329-3.132-5.132l3.165-1.156zM1.536 2.5h28.929v2.893h-28.929v-2.893zM4.556 8.172l23.016 0.114v11.571h-23.143l0.127-11.685zM24.679 16.964l0.122-5.942-17.479 0.156v5.786h17.357z"/>
</symbol>
<symbol id="icon-netease-music" viewBox="0 0 32 32">
  <title>netease-music</title>
  <path class="icon-path" d="M21.439-0.014c0.33 0.053 0.664 0.090 0.992 0.161 1.148 0.248 2.177 0.745 3.085 1.475 0.596 0.478 0.839 1.102 0.666 1.841-0.155 0.664-0.589 1.112-1.259 1.304-0.634 0.181-1.207 0.043-1.727-0.364-0.66-0.518-1.392-0.875-2.269-0.799-0.744 0.065-1.454 0.83-1.39 1.513 0.028 0.306 0.14 0.604 0.219 0.905 0.14 0.531 0.285 1.061 0.427 1.592 0.024 0.091 0.048 0.164 0.179 0.171 1.998 0.106 3.799 0.743 5.403 1.922 1.577 1.16 2.869 2.552 3.735 4.3 0.635 1.284 0.991 2.639 1.085 4.061 0.125 1.891-0.102 3.74-0.854 5.486-1.749 4.058-4.824 6.676-9.147 7.879-1.645 0.458-3.331 0.637-5.037 0.542-3.547-0.198-6.62-1.509-9.208-3.88-2.554-2.338-4.147-5.213-4.7-8.588-0.754-4.591 0.402-8.707 3.46-12.277 1.679-1.961 3.775-3.374 6.219-4.286 0.842-0.315 1.764-0.022 2.226 0.697 0.472 0.735 0.361 1.681-0.293 2.265-0.184 0.166-0.418 0.296-0.651 0.39-3.726 1.488-6.187 4.109-7.165 7.932-0.949 3.708-0.11 7.103 2.312 10.094 1.518 1.875 3.48 3.134 5.853 3.752 1.534 0.4 3.084 0.425 4.647 0.189 1.612-0.244 3.118-0.762 4.469-1.667 1.858-1.245 3.182-2.904 3.844-5.016 0.571-1.823 0.591-3.664-0.115-5.473-0.568-1.456-1.574-2.576-2.834-3.5-0.673-0.494-1.396-0.879-2.22-1.068-0.038-0.008-0.076-0.013-0.144-0.024 0.113 0.422 0.217 0.823 0.326 1.223 0.262 0.964 0.529 1.927 0.786 2.892 0.558 2.099 0.018 3.937-1.459 5.503-1.367 1.449-3.106 2.080-5.1 1.891-2.221-0.211-3.807-1.39-4.841-3.3-0.542-1-0.776-2.077-0.819-3.205-0.069-1.796 0.36-3.453 1.411-4.936 1.129-1.592 2.693-2.613 4.541-3.247 0.145-0.050 0.293-0.095 0.463-0.151-0.1-0.37-0.203-0.73-0.293-1.094-0.123-0.501-0.281-0.999-0.344-1.507-0.183-1.504 0.289-2.811 1.351-3.907 0.87-0.896 1.924-1.464 3.187-1.635 0.139-0.019 0.278-0.040 0.417-0.059 0.189 0 0.378 0 0.568 0zM17.495 11.658c-1.095 0.341-2.040 0.86-2.748 1.724-0.948 1.158-1.137 2.488-0.835 3.9 0.157 0.734 0.524 1.362 1.168 1.8 0.805 0.548 1.901 0.524 2.743-0.045 0.86-0.584 1.243-1.524 0.992-2.488-0.275-1.056-0.568-2.108-0.853-3.162-0.153-0.567-0.307-1.135-0.467-1.73z"/>
</symbol>
<symbol id="icon-v2ex" viewBox="0 0 32 32">
  <title>v2ex</title>
  <path class="icon-path" d="M19.549 2.508h-17.378c-0.639 0-1.158 0.508-1.158 1.135v7.857h16.297c0.339 0 0.663 0.136 0.895 0.378l3.782 3.919c0.085 0.088 0.085 0.224 0.001 0.312l-3.782 3.957c-0.233 0.244-0.489 0.444-0.83 0.444h-16.363v7.866c0 0.627 0.519 1.136 1.158 1.136h17.374c0.383 0 0.75-0.149 1.021-0.415l11.738-11.518c0.915-0.897 0.912-2.352-0.007-3.246l-11.732-11.415c-0.27-0.263-0.635-0.41-1.016-0.41z"/>
</symbol>
<symbol id="icon-fanfou" viewBox="0 0 32 32">
  <title>fanfou</title>
  <path class="icon-path" d="M6.287 1.886c-.06.1-.423 1.13-.806 2.3-.74 2.217-2.27 5.463-3.34 7.036l-.62.907.85.76c.47.42.93.72 1.05.68.14-.06.77-1.05 1.39-2.22l1.17-2.14 2.46-.06c1.35-.04 2.52-.04 2.6 0 .08.02-.08.67-.34 1.43-.28.76-.5 1.47-.5 1.59 0 .26 1.86.9 2.04.7.16-.18 1.33-4.07 1.52-5.06l.14-.65h-3.4c-1.83 0-3.34-.08-3.34-.16 0-.35 1.05-2.73 1.52-3.47.567-.89.567-.87-1.03-1.41-1.33-.47-1.25-.45-1.35-.27zM29.1 27.196c-1.454-.664-3.63-2.217-4.094-2.923-.283-.442-.263-.563.383-1.975.38-.827.96-2.36 1.28-3.428.74-2.32 1.93-7.944 1.77-8.348-.08-.26-.95-.302-5.47-.302h-5.34V6.423l2.69-.223c1.45-.14 3.42-.32 4.37-.42.94-.12 2.32-.2 3.08-.2.74 0 1.35-.06 1.35-.14 0-.06-.35-.66-.75-1.31-.83-1.25-.99-1.31-2.48-.97-1.39.33-7.24 1.01-8.63 1.01-.79 0-1.53.04-1.7.1-.22.08-.24 1.19-.18 5.91.12 10.18-.61 13.51-3.83 17.3-.65.77-1.19 1.457-1.19 1.537 0 .2 1.91 1.17 2.26 1.17.26-.02 1.31-1.533 2.44-3.51.64-1.13 1.47-3.47 1.75-5 .37-1.914.83-6.29.81-7.62-.04-1.875-.04-1.855.45-1.775.4.06.48.323.99 3.306.6 3.63.88 4.76 1.77 6.896l.61 1.474-1.29 1.29c-.73.705-1.98 1.653-2.83 2.117-.83.46-1.51.886-1.51.925 0 .062.42.546.94 1.09l.95.97 1.21-.91c.68-.503 1.9-1.57 2.68-2.356l1.47-1.414 1.25 1.23c.702.665 1.94 1.713 2.76 2.298l1.49 1.068.33-.48c.18-.282.56-.79.89-1.13.3-.342.54-.684.54-.77 0-.06-.567-.38-1.25-.682zm-5.957-5.692c-.604 0-1.955-4.74-2.217-7.763l-.12-1.51h5.16l-.14 1.01c-.363 2.77-2.158 8.27-2.683 8.27z"/>
  <path class="icon-path" d="M5.44 13.157c-.142.04-.18 1.896-.12 5.222.06 5.48 0 6.04-1.01 7.31l-.382.5.847.92c.484.5.968.93 1.09.93.14 0 .947-.83 1.794-1.82.86-1.01 2.15-2.42 2.88-3.17l1.31-1.33-.59-.93c-.33-.5-.67-.93-.79-.93-.1.02-.79.76-1.52 1.67l-1.3 1.67-.1-5.04-.1-5.04-.91-.04c-.51-.02-1.01 0-1.11.06z"/>
</symbol>
<symbol id="icon-circle">
  <circle cx="50%" cy="50%" r="50%"/>
</symbol>
<symbol id="icon-github-circle" viewBox="0 0 32 32">
  <title>github</title>
  <use xlink:href="#icon-circle" fill="#5f5f5f"/>
  <use xlink:href="#icon-github" height="19" y="7" fill="#fff"/>
</symbol>
<symbol id="icon-codepen-circle" viewBox="0 0 32 32">
  <title>codepen</title>
  <use xlink:href="#icon-circle" fill="#000"/>
  <use xlink:href="#icon-codepen" width="20" x="6" fill="#fff"/>
</symbol>
<symbol id="icon-mail-circle" viewBox="0 0 32 32">
  <title>mail</title>
  <use xlink:href="#icon-circle" fill="#dd4b39"/>
  <use xlink:href="#icon-mail" width="22" x="5" fill="#fff"/>
</symbol>
<symbol id="icon-rss-circle" viewBox="0 0 32 32">
  <title>rss</title>
  <use xlink:href="#icon-circle" fill="#fc9a2a"/>
  <use xlink:href="#icon-rss" width="16" x="9" fill="#fff"/>
</symbol>
<symbol id="icon-twitter-circle" viewBox="0 0 32 32">
  <title>twitter</title>
  <use xlink:href="#icon-circle" fill="#1da1f2"/>
  <use xlink:href="#icon-twitter" width="20" x="7" fill="#fff"/>
</symbol>
<symbol id="icon-weibo-circle" viewBox="0 0 32 32">
  <title>sina-weibo</title>
  <use xlink:href="#icon-circle" fill="#e6162d"/>
  <use xlink:href="#icon-weibo" width="20" x="6" fill="#fff"/>
</symbol>
<symbol id="icon-zhihu-circle" viewBox="0 0 32 32">
  <title>zhihu</title>
  <use xlink:href="#icon-circle" fill="#086acd"/>
  <use xlink:href="#icon-zhihu" width="20" x="6" fill="#fff"/>
</symbol>
<symbol id="icon-bilibili-circle" viewBox="0 0 32 32">
  <title>bilibili</title>
  <use xlink:href="#icon-circle" fill="#f489ad"/>
  <use xlink:href="#icon-bilibili" width="20" x="6" fill="#fff"/>
</symbol>
<symbol id="icon-douban-circle" viewBox="0 0 32 32">
  <title>douban</title>
  <use xlink:href="#icon-circle" fill="#259235"/>
  <use xlink:href="#icon-douban" width="20" x="6" fill="#fff"/>
</symbol>
<symbol id="icon-netease-music-circle" viewBox="0 0 32 32">
  <title>netease-music</title>
  <use xlink:href="#icon-circle" fill="#ea0606"/>
  <use xlink:href="#icon-netease-music" width="22" x="4.8" y="-.5" fill="#fff"/>
</symbol>
<symbol id="icon-v2ex-circle" viewBox="0 0 32 32">
  <title>v2ex</title>
  <use xlink:href="#icon-circle" fill="#1e1e1f"/>
  <use xlink:href="#icon-v2ex" width="20" x="7" fill="#fff"/>
</symbol>
<symbol id="icon-fanfou-circle" viewBox="0 0 32 32">
  <title>fanfou</title>
  <use xlink:href="#icon-circle" fill="#0cf"/>
  <use xlink:href="#icon-fanfou" height="22" y="5" fill="#fff"/>
</symbol>
</defs>
</svg>
