<?xml version="1.0" encoding="utf-8"?>
<svg width="32" height="32" viewBox="0 0 32 32" xmlns="http://www.w3.org/2000/svg">
  <rect width="32" height="32" style="stroke-width: 2.158; fill: rgb(1, 159, 232);" rx="4.688" ry="4.688"/>
  <path d="M 13.848 5.704 L 13.786 7.735 L 5.598 7.735 L 5.598 9.292 L 13.89 9.292 L 13.89 11.985 L 7.05 11.985 L 7.05 13.457 L 13.994 13.395 L 20.96 13.331 L 20.834 13.83 C 20.525 15.033 19.197 18.246 18.948 18.352 C 18.803 18.391 17.787 18.161 16.647 17.831 C 13.186 16.774 11.463 16.463 9.121 16.463 C 6.738 16.482 5.185 16.916 3.69 17.976 C 0.79 20.049 0.56 24.113 3.254 26.371 C 6.118 28.778 10.802 29.006 15.05 26.934 C 16.564 26.205 19.281 24.24 20.194 23.223 L 20.566 22.787 L 21.747 23.368 C 22.929 23.97 30.226 27.348 31.47 27.866 L 32.131 28.157 L 32.131 22.826 L 30.328 22.352 C 28.691 21.917 24.505 20.609 23.156 20.09 L 22.639 19.883 L 23.32 18.473 C 24.048 17.022 25.498 12.916 25.498 12.318 C 25.498 12.026 25.083 11.984 21.87 11.984 L 18.242 11.984 L 18.242 9.292 L 26.951 9.292 L 26.951 7.922 C 26.951 7.862 24.981 7.818 22.597 7.839 L 18.242 7.861 L 18.242 3.692 L 13.911 3.692 L 13.848 5.704 Z M 13.038 19.221 C 14.117 19.594 15.546 20.173 16.212 20.526 L 17.413 21.168 L 16.752 21.998 C 16.379 22.455 15.528 23.242 14.825 23.76 C 12.461 25.522 10.262 26.204 7.442 26.039 C 4.5 25.875 2.925 24.671 2.738 22.436 C 2.613 21.046 2.925 20.258 3.878 19.533 C 5.08 18.619 6.055 18.412 8.71 18.473 C 10.741 18.538 11.385 18.662 13.039 19.22 Z" style="fill: rgb(255, 255, 255); stroke-width: 0.987;"/>
</svg>