<?xml version="1.0" encoding="utf-8"?>
<svg width="32" height="32" viewBox="0 0 32 32" xmlns="http://www.w3.org/2000/svg">
  <rect width="32" height="32" style="stroke-width: 2.158; fill: rgb(247, 147, 27);" rx="6.593" ry="6.593"/>
  <path d="M 22.652 11.761 C 22.825 13.523 22.082 14.584 20.916 15.179 C 22.851 15.642 24.072 16.795 23.833 19.379 C 23.527 22.599 21.142 23.46 17.724 23.646 L 17.724 27.026 L 15.683 27.026 L 15.683 23.698 C 15.166 23.698 14.623 23.698 14.067 23.684 L 14.067 27.026 L 12.024 27.026 L 12.024 23.646 C 11.547 23.646 11.072 23.633 10.582 23.633 L 7.931 23.633 L 8.342 21.207 C 9.839 21.233 9.811 21.207 9.811 21.207 C 10.38 21.207 10.538 20.798 10.58 20.532 L 10.58 15.206 L 10.79 15.206 C 10.71 15.192 10.632 15.192 10.58 15.192 L 10.58 11.388 C 10.498 10.964 10.234 10.487 9.397 10.487 C 9.397 10.487 9.424 10.462 7.927 10.487 L 7.927 8.313 L 10.737 8.329 C 11.147 8.329 11.584 8.329 12.02 8.313 L 12.02 4.975 L 14.065 4.975 L 14.065 8.248 C 14.608 8.236 15.152 8.221 15.681 8.221 L 15.681 4.975 L 17.721 4.975 L 17.721 8.314 C 20.347 8.54 22.426 9.351 22.651 11.762 Z M 19.803 18.983 C 19.803 16.358 15.483 16.744 14.106 16.744 L 14.106 21.222 C 15.485 21.222 19.804 21.513 19.804 18.983 Z M 18.863 12.674 C 18.863 10.275 15.259 10.634 14.106 10.634 L 14.106 14.701 C 15.259 14.701 18.865 14.967 18.865 12.672 Z" style="stroke-width: 0.689; fill: rgb(255, 255, 255);"/>
</svg>