<?xml version="1.0" encoding="utf-8"?>
<svg width="32" height="32" viewBox="0 0 32 32" xmlns="http://www.w3.org/2000/svg">
  <rect width="32" height="32" style="stroke-width: 2.158; fill: rgb(110, 146, 163);" rx="4.688" ry="4.688"/>
  <g id="layer1" transform="matrix(1, 0, 0, 1, -341.9098606281452, -324.06873768299545)">
    <g id="g40" transform="matrix(1.1421528,0,0,-1.1421528,265.93398,460.73095)">
      <g id="g4184" transform="matrix(1, 0, 0, 1, -0.102861, 0.16624)">
        <path id="path38" style="fill: rgb(255, 255, 255); fill-opacity: 1; fill-rule: nonzero; stroke: none;" d="M 88.824 104.099 C 87.861 103.979 87.079 104.069 87.079 104.069 L 87.079 109.962 L 88.914 109.962 C 88.914 109.962 90.958 109.39 90.958 107.226 C 90.958 105.242 89.935 104.46 88.824 104.099 M 93.892 108.235 C 93.09 112.472 88.853 112.999 88.853 112.999 L 69.877 112.999 C 69.25 112.999 69.174 112.172 69.174 112.172 C 69.174 112.172 69.089 104.576 69.15 99.911 C 69.32 97.399 71.833 97.141 71.833 97.141 C 71.833 97.141 80.405 97.166 84.241 97.191 C 86.769 97.634 87.023 99.852 86.998 101.066 C 91.51 100.815 94.694 103.998 93.892 108.235"/>
        <path id="path42" style="fill: rgb(255, 95, 95); fill-opacity: 1; fill-rule: nonzero; stroke: none;" d="M 77.941 100.446 C 78.137 100.348 78.262 100.47 78.262 100.47 C 78.262 100.47 81.13 103.087 82.422 104.594 C 83.57 105.942 83.646 108.215 81.672 109.064 C 79.699 109.912 78.076 108.065 78.076 108.065 C 76.668 109.614 74.538 109.535 73.552 108.488 C 72.567 107.44 72.911 105.641 73.646 104.639 C 74.336 103.701 77.37 100.997 77.829 100.539 C 77.829 100.539 77.863 100.505 77.941 100.446"/>
      </g>
    </g>
  </g>
</svg>