<?xml version="1.0" encoding="utf-8"?>
<svg width="32" height="32" viewBox="0 0 32 32" xmlns="http://www.w3.org/2000/svg">
  <rect width="32" height="32" style="stroke-width: 2.158; fill: rgb(1, 156, 222);" rx="7.325" ry="7.325"/>
  <path d="M 24.029 11.936 C 23.075 16.173 20.125 18.413 15.476 18.413 L 13.929 18.413 L 12.856 25.24 L 11.56 25.24 L 11.489 25.68 C 11.447 25.97 11.67 26.233 11.963 26.233 L 15.271 26.233 C 15.665 26.233 15.995 25.948 16.06 25.56 L 16.09 25.392 L 16.714 21.439 L 16.757 21.226 C 16.815 20.837 17.151 20.553 17.542 20.553 L 18.034 20.553 C 21.238 20.553 23.751 19.25 24.485 15.488 C 24.76 14.055 24.659 12.841 24.032 11.936 Z" style="stroke-width: 0.639; fill: rgb(255, 255, 255);"/>
  <path d="M 22.051 7.311 C 21.104 6.232 19.389 5.767 17.2 5.767 L 10.841 5.767 C 10.392 5.767 10.007 6.091 9.939 6.534 L 7.289 23.328 C 7.24 23.663 7.494 23.962 7.83 23.962 L 11.758 23.962 L 12.746 17.708 L 12.715 17.899 C 12.783 17.457 13.162 17.135 13.611 17.135 L 15.479 17.135 C 19.144 17.135 22.012 15.647 22.852 11.34 C 22.877 11.212 22.898 11.086 22.913 10.967 C 23.164 9.377 22.913 8.289 22.051 7.308 Z" style="stroke-width: 0.639; fill: rgb(255, 255, 255);"/>
</svg>