<?xml version="1.0" encoding="utf-8"?>
<svg width="32" height="32" viewBox="0 0 32 32" xmlns="http://www.w3.org/2000/svg">
  <rect width="32" height="32" style="stroke-width: 2.158; fill: rgb(36, 170, 56);" rx="4.688" ry="4.688"/>
  <path d="M 10.957 11.059 C 10.957 10.435 10.548 10.026 9.924 10.026 C 9.311 10.026 8.687 10.435 8.687 11.06 C 8.687 11.673 9.312 12.082 9.925 12.082 C 10.549 12.082 10.959 11.672 10.959 11.059 Z M 19.396 16.817 C 19.396 16.408 18.987 15.999 18.362 15.999 C 17.953 15.999 17.545 16.408 17.545 16.817 C 17.545 17.237 17.953 17.645 18.362 17.645 C 18.987 17.645 19.396 17.239 19.396 16.817 Z M 16.713 11.059 C 16.713 10.435 16.306 10.026 15.693 10.026 C 15.067 10.026 14.455 10.435 14.455 11.06 C 14.455 11.673 15.068 12.082 15.693 12.082 C 16.306 12.082 16.714 11.672 16.714 11.059 Z M 23.927 16.817 C 23.927 16.408 23.507 15.999 22.893 15.999 C 22.485 15.999 22.076 16.408 22.076 16.817 C 22.076 17.237 22.482 17.645 22.892 17.645 C 23.507 17.645 23.927 17.239 23.927 16.817 Z M 20.906 12.308 C 20.644 12.274 20.382 12.263 20.111 12.263 C 16.204 12.263 13.114 15.181 13.114 18.769 C 13.114 19.37 13.205 19.952 13.377 20.496 C 13.114 20.517 12.865 20.53 12.604 20.53 C 11.57 20.53 10.753 20.326 9.719 20.121 L 6.847 21.562 L 7.663 19.089 C 5.608 17.646 4.37 15.784 4.37 13.524 C 4.37 9.606 8.073 6.529 12.603 6.529 C 16.647 6.529 20.201 8.993 20.906 12.308 Z M 27.629 18.678 C 27.629 20.53 26.402 22.177 24.744 23.414 L 25.367 25.471 L 23.108 24.234 C 22.28 24.436 21.451 24.653 20.633 24.653 C 16.714 24.653 13.636 21.973 13.636 18.678 C 13.636 15.385 16.714 12.707 20.633 12.707 C 24.335 12.707 27.629 15.386 27.629 18.68 Z" style="fill: rgb(255, 255, 255); stroke-width: 0.727;"/>
</svg>