<?xml version="1.0" encoding="utf-8"?>
<svg width="1024" height="530" viewBox="0 0 1024 530" xmlns="http://www.w3.org/2000/svg">
  <path fill="#2D97B7" d="M 15.237 28 C 15.237 242.024 149.916 424.447 338.785 494.43 L 338.785 530 L 684.225 530 L 684.225 493.31 C 869.687 423.206 1002.159 244.426 1004.731 34.23 L 1024.406 0 L 0.681 0 L 15.255 25.36 C 15.251 26.24 15.237 27.118 15.237 28 Z" style="stroke-width: 0.996;"/>
  <path fill="#FFF" d="M 936.508 46 C 936.541 48.11 936.563 50.222 936.563 52.34 C 936.563 198.77 858.693 326.995 742.118 397.914 L 749.641 410.919 C 870.693 337.4 951.563 204.314 951.563 52.34 C 951.563 50.223 951.543 48.11 951.511 46 Z M 682.232 427.848 C 661.292 436.213 639.495 442.888 617 447.682 L 617 449.118 L 619.131 462.572 C 643.546 457.431 667.168 450.145 689.817 440.958 Z"/>
</svg>