<?xml version="1.0" encoding="utf-8"?>
<svg viewBox="0 0 726 778" preserveAspectRatio="xMinYMid" xmlns="http://www.w3.org/2000/svg">
  <g transform="matrix(0.707107, 0.707107, -0.707107, 0.707107, 461.594727, -221.993637)">
    <path fill="#6BBC57" d="M 642.982 300.56 C 554.328 196.092 363.826 8.054 363.826 8.054 L 363.827 8.024 C 363.827 8.024 173.386 196.095 84.392 300.58 C 17.808 378.75 17.151 477.613 17.108 502.269 C 17.058 531.181 32.169 657.262 120.861 750.012 C 235.87 870.28 362.135 996.455 362.135 996.455 L 362.134 996.486 C 362.134 996.486 489.481 870.288 604.878 750.002 C 693.875 657.232 709.712 531.151 709.756 502.238 C 709.793 477.582 709.31 378.722 642.982 300.56 Z" style="" transform="matrix(0.998584, -0.053198, 0.053198, 0.998584, -26.204336, 20.045083)"/>
    <path fill="#BDE9B7" d="M 353.483 146.05 L 373.428 146.05 L 373.428 870.075 L 353.483 870.075 Z" style="" transform="matrix(0.99863, -0.052336, 0.052336, 0.99863, -26.091851, 19.718087)"/>
  </g>
</svg>