<?xml version="1.0" encoding="utf-8"?>
<svg xmlns="http://www.w3.org/2000/svg" width="1024" height="1024" viewBox="0 0 1024 1024">
  <circle fill="#FFB30D" cx="512" cy="512" r="512"/>
  <circle fill="#FCE29C" cx="512" cy="512" r="445"/>
  <path fill="#FCC329" d="M512 488l119-219c22.667-88.667-48.5-157.333-119-159.333S364.334 181 388 269l124 219zM532.837 502H782.08c88.73-22 115.087-117.747 83.185-180.647-31.903-62.9-133.18-95.684-199.205-32.874L532.837 502zM537.896 526.9L670.03 738.233c66.046 63.353 160.84 35.17 197.262-25.226 36.418-60.397 10.53-163.655-77.727-186.34l-251.67.23zM513.295 535.998L396.97 756.43c-21.585 88.94 50.413 156.732 120.932 157.874 70.52 1.14 146.787-73.127 122.05-160.832L513.296 535.998zM489.93 526.488l-249.243.33c-88.702 22.535-114.93 117.886-82.945 180.744 31.986 62.857 142.985 97.67 208.925 34.77L489.93 526.49zM491.1 502.206L359.332 290.64c-65.938-63.466-160.778-35.446-197.304 24.887C125.502 375.86 151.21 479.164 239.43 502l251.67.206z"/>
</svg>
