<?xml version="1.0" encoding="utf-8"?>
<svg viewBox="0 0 350 50" xmlns="http://www.w3.org/2000/svg">
  <g>
    <path fill="#f9690e" d="M 11.585 16.976 L 3.728 16.976 C 2.629 16.976 1.741 17.864 1.741 18.963 L 1.741 31.039 C 1.741 32.134 2.629 33.024 3.728 33.024 L 11.585 33.024 C 11.939 33.024 12.287 33.119 12.592 33.299 L 25.18 45.02 C 26.504 45.798 28.174 44.845 28.174 43.308 L 28.174 6.692 C 28.174 5.157 26.504 4.201 25.18 4.98 L 12.593 16.7 C 12.287 16.879 11.94 16.975 11.585 16.975 Z" style=""/>
  </g>
  <g transform="matrix(1, 0, 0, 1, 50, 0)">
    <path fill="#f9690e" d="M 11.585 16.976 L 3.728 16.976 C 2.629 16.976 1.741 17.864 1.741 18.963 L 1.741 31.039 C 1.741 32.134 2.629 33.024 3.728 33.024 L 11.585 33.024 C 11.939 33.024 12.287 33.119 12.592 33.299 L 25.18 45.02 C 26.504 45.798 28.174 44.845 28.174 43.308 L 28.174 6.692 C 28.174 5.157 26.504 4.201 25.18 4.98 L 12.593 16.7 C 12.287 16.879 11.94 16.975 11.585 16.975 Z" style=""/>
    <path fill="#f9690e" d="M 32.117 35.055 C 31.833 35.055 31.549 34.946 31.333 34.729 C 30.896 34.295 30.896 33.591 31.333 33.158 C 36.105 28.382 36.105 20.612 31.333 15.837 C 30.896 15.403 30.896 14.702 31.333 14.265 C 31.766 13.832 32.468 13.832 32.903 14.265 C 38.546 19.906 38.546 29.086 32.903 34.728 C 32.689 34.945 32.403 35.055 32.117 35.055 Z" style=""/>
  </g>
  <g transform="matrix(1, 0, 0, 1, 100, 0)">
    <path fill="#f9690e" d="M 11.585 16.976 L 3.728 16.976 C 2.629 16.976 1.741 17.864 1.741 18.963 L 1.741 31.039 C 1.741 32.134 2.629 33.024 3.728 33.024 L 11.585 33.024 C 11.939 33.024 12.287 33.119 12.592 33.299 L 25.18 45.02 C 26.504 45.798 28.174 44.845 28.174 43.308 L 28.174 6.692 C 28.174 5.157 26.504 4.201 25.18 4.98 L 12.593 16.7 C 12.287 16.879 11.94 16.975 11.585 16.975 Z" style=""/>
    <path fill="#f9690e" d="M 32.117 35.055 C 31.833 35.055 31.549 34.946 31.333 34.729 C 30.896 34.295 30.896 33.591 31.333 33.158 C 36.105 28.382 36.105 20.612 31.333 15.837 C 30.896 15.403 30.896 14.702 31.333 14.265 C 31.766 13.832 32.468 13.832 32.903 14.265 C 38.546 19.906 38.546 29.086 32.903 34.728 C 32.689 34.945 32.403 35.055 32.117 35.055 Z" style=""/>
    <path fill="#f9690e" d="M 36.052 39.547 C 35.766 39.547 35.484 39.439 35.264 39.221 C 34.832 38.786 34.832 38.085 35.264 37.651 C 42.199 30.718 42.199 19.437 35.264 12.504 C 34.832 12.07 34.832 11.368 35.264 10.933 C 35.703 10.499 36.403 10.499 36.837 10.933 C 44.636 18.734 44.636 31.423 36.837 39.221 C 36.619 39.439 36.336 39.547 36.052 39.547 Z" style=""/>
  </g>
  <g transform="matrix(1, 0, 0, 1, 150, 0)">
    <path fill="#f9690e" d="M 11.585 16.976 L 3.728 16.976 C 2.629 16.976 1.741 17.864 1.741 18.963 L 1.741 31.039 C 1.741 32.134 2.629 33.024 3.728 33.024 L 11.585 33.024 C 11.939 33.024 12.287 33.119 12.592 33.299 L 25.18 45.02 C 26.504 45.798 28.174 44.845 28.174 43.308 L 28.174 6.692 C 28.174 5.157 26.504 4.201 25.18 4.98 L 12.593 16.7 C 12.287 16.879 11.94 16.975 11.585 16.975 Z" style=""/>
    <path fill="#f9690e" d="M 32.117 35.055 C 31.833 35.055 31.549 34.946 31.333 34.729 C 30.896 34.295 30.896 33.591 31.333 33.158 C 36.105 28.382 36.105 20.612 31.333 15.837 C 30.896 15.403 30.896 14.702 31.333 14.265 C 31.766 13.832 32.468 13.832 32.903 14.265 C 38.546 19.906 38.546 29.086 32.903 34.728 C 32.689 34.945 32.403 35.055 32.117 35.055 Z" style=""/>
    <path fill="#f9690e" d="M 36.052 39.547 C 35.766 39.547 35.484 39.439 35.264 39.221 C 34.832 38.786 34.832 38.085 35.264 37.651 C 42.199 30.718 42.199 19.437 35.264 12.504 C 34.832 12.07 34.832 11.368 35.264 10.933 C 35.703 10.499 36.403 10.499 36.837 10.933 C 44.636 18.734 44.636 31.423 36.837 39.221 C 36.619 39.439 36.336 39.547 36.052 39.547 Z" style=""/>
    <path fill="#f9690e" d="M 39.314 45.057 C 39.028 45.057 38.744 44.948 38.528 44.73 C 38.093 44.297 38.093 43.595 38.528 43.16 C 43.369 38.321 46.035 31.89 46.035 25.056 C 46.035 18.22 43.37 11.788 38.528 6.948 C 38.093 6.514 38.093 5.812 38.528 5.378 C 38.963 4.944 39.664 4.944 40.1 5.378 C 45.361 10.637 48.26 17.625 48.26 25.056 C 48.26 32.484 45.361 39.473 40.1 44.731 C 39.883 44.949 39.599 45.058 39.315 45.058 Z" style=""/>
  </g>
  <g transform="matrix(1, 0, 0, 1, 200, 0)">
    <path fill="#f9690e" d="M 11.585 16.976 L 3.728 16.976 C 2.629 16.976 1.741 17.864 1.741 18.963 L 1.741 31.039 C 1.741 32.134 2.629 33.024 3.728 33.024 L 11.585 33.024 C 11.939 33.024 12.287 33.119 12.592 33.299 L 25.18 45.02 C 26.504 45.798 28.174 44.845 28.174 43.308 L 28.174 6.692 C 28.174 5.157 26.504 4.201 25.18 4.98 L 12.593 16.7 C 12.287 16.879 11.94 16.975 11.585 16.975 Z" style=""/>
    <path fill="#f9690e" d="M 36.052 39.547 C 35.766 39.547 35.484 39.439 35.264 39.221 C 34.832 38.786 34.832 38.085 35.264 37.651 C 42.199 30.718 42.199 19.437 35.264 12.504 C 34.832 12.07 34.832 11.368 35.264 10.933 C 35.703 10.499 36.403 10.499 36.837 10.933 C 44.636 18.734 44.636 31.423 36.837 39.221 C 36.619 39.439 36.336 39.547 36.052 39.547 Z" style=""/>
    <path fill="#f9690e" d="M 39.314 45.057 C 39.028 45.057 38.744 44.948 38.528 44.73 C 38.093 44.297 38.093 43.595 38.528 43.16 C 43.369 38.321 46.035 31.89 46.035 25.056 C 46.035 18.22 43.37 11.788 38.528 6.948 C 38.093 6.514 38.093 5.812 38.528 5.378 C 38.963 4.944 39.664 4.944 40.1 5.378 C 45.361 10.637 48.26 17.625 48.26 25.056 C 48.26 32.484 45.361 39.473 40.1 44.731 C 39.883 44.949 39.599 45.058 39.315 45.058 Z" style=""/>
  </g>
  <g transform="matrix(1, 0, 0, 1, 250, 0)">
    <path fill="#f9690e" d="M 11.585 16.976 L 3.728 16.976 C 2.629 16.976 1.741 17.864 1.741 18.963 L 1.741 31.039 C 1.741 32.134 2.629 33.024 3.728 33.024 L 11.585 33.024 C 11.939 33.024 12.287 33.119 12.592 33.299 L 25.18 45.02 C 26.504 45.798 28.174 44.845 28.174 43.308 L 28.174 6.692 C 28.174 5.157 26.504 4.201 25.18 4.98 L 12.593 16.7 C 12.287 16.879 11.94 16.975 11.585 16.975 Z" style=""/>
    <path fill="#f9690e" d="M 39.314 45.057 C 39.028 45.057 38.744 44.948 38.528 44.73 C 38.093 44.297 38.093 43.595 38.528 43.16 C 43.369 38.321 46.035 31.89 46.035 25.056 C 46.035 18.22 43.37 11.788 38.528 6.948 C 38.093 6.514 38.093 5.812 38.528 5.378 C 38.963 4.944 39.664 4.944 40.1 5.378 C 45.361 10.637 48.26 17.625 48.26 25.056 C 48.26 32.484 45.361 39.473 40.1 44.731 C 39.883 44.949 39.599 45.058 39.315 45.058 Z" style=""/>
  </g>
  <g transform="matrix(1, 0, 0, 1, 300, 0)">
    <path fill="#f9690e" d="M 11.585 16.976 L 3.728 16.976 C 2.629 16.976 1.741 17.864 1.741 18.963 L 1.741 31.039 C 1.741 32.134 2.629 33.024 3.728 33.024 L 11.585 33.024 C 11.939 33.024 12.287 33.119 12.592 33.299 L 25.18 45.02 C 26.504 45.798 28.174 44.845 28.174 43.308 L 28.174 6.692 C 28.174 5.157 26.504 4.201 25.18 4.98 L 12.593 16.7 C 12.287 16.879 11.94 16.975 11.585 16.975 Z" style=""/>
  </g>
</svg>