<?xml version="1.0" encoding="utf-8"?>
<svg xmlns="http://www.w3.org/2000/svg" width="1024" height="513" viewBox="0 0 1024 513">
  <path fill="#A63131" d="M512 511.936c282.734 0 511.936-229.2 511.936-511.936H.064C.064 282.734 229.266 511.936 512 511.936z"/>
  <path fill="#BC5757" d="M512 411c226.988 0 411-184.01 411-411H101c0 226.99 184.01 411 411 411z"/>
  <path fill="#F1D4AF" d="M518.356 134.897l-42.718 77.038c-8.28 31.27 16.665 55.75 41.574 56.672 24.91.918 52.402-24.766 44.305-55.938l-43.16-77.773zM669.548 85.61l25.08 84.444c16.52 27.807 51.468 27.146 69.568 10.008 18.1-17.138 19.018-54.75-8.906-70.8l-85.742-23.65zM366.072 85.563l-85.068 22.87c-28.23 15.79-28.48 50.742-11.82 69.284 16.662 18.54 54.237 20.44 71.01-7.056l25.878-85.097z"/>
</svg>
